<svg width="32" height="32" viewBox="0 0 32 32" fill="none" xmlns="http://www.w3.org/2000/svg">
<path d="M30 13.4979C30 7.15792 23.7199 2 15.9999 2C8.28094 2 2 7.15792 2 13.4979C2 19.1817 6.98063 23.9417 13.7084 24.8418C14.1644 24.9412 14.7849 25.146 14.9419 25.5404C15.0831 25.8986 15.0342 26.4598 14.987 26.8216C14.987 26.8216 14.8227 27.8214 14.7873 28.0343C14.7264 28.3926 14.5061 29.4353 15.9999 28.7981C17.4942 28.1609 24.0626 23.9935 26.9998 20.572C29.0287 18.3204 30 16.0353 30 13.4979Z" fill="#DA7D4A"/>
<path d="M13.1555 10.4244H12.1735C12.0229 10.4244 11.9005 10.5478 11.9005 10.6995V16.866C11.9005 17.0179 12.0229 17.1411 12.1735 17.1411H13.1555C13.306 17.1411 13.4281 17.0179 13.4281 16.866V10.6995C13.4281 10.5478 13.306 10.4244 13.1555 10.4244Z" fill="white"/>
<path d="M19.9146 10.4244H18.9326C18.7821 10.4244 18.66 10.5478 18.66 10.6995V14.3631L15.8645 10.5467C15.8128 10.4683 15.7289 10.4295 15.6374 10.4244H14.6557C14.5051 10.4244 14.3828 10.5478 14.3828 10.6995V16.866C14.3828 17.0179 14.5051 17.1411 14.6557 17.1411H15.6374C15.7883 17.1411 15.9104 17.0179 15.9104 16.866V13.2035L18.7093 17.0247C18.7596 17.0967 18.8449 17.1411 18.9326 17.1411H19.9146C20.0655 17.1411 20.1873 17.0179 20.1873 16.866V10.6995C20.1873 10.5478 20.0655 10.4244 19.9146 10.4244Z" fill="white"/>
<path d="M10.7883 15.5969H8.12001V10.6998C8.12001 10.5476 7.9979 10.4241 7.8476 10.4241H6.86533C6.71477 10.4241 6.59265 10.5476 6.59265 10.6998V16.8652C6.59265 17.0149 6.71423 17.1411 6.86506 17.1411H10.7883C10.9388 17.1411 11.0604 17.0174 11.0604 16.8652V15.8725C11.0604 15.7203 10.9388 15.5969 10.7883 15.5969Z" fill="white"/>
<path d="M25.3376 11.9683C25.4881 11.9683 25.6097 11.8452 25.6097 11.6927V10.7C25.6097 10.5478 25.4881 10.4241 25.3376 10.4241H21.4146C21.264 10.4241 21.142 10.5501 21.142 10.6998V16.8655C21.142 17.0147 21.2636 17.1411 21.4141 17.1411H25.3376C25.4881 17.1411 25.6097 17.0174 25.6097 16.8655V15.8725C25.6097 15.7206 25.4881 15.5969 25.3376 15.5969H22.6696V14.5546H25.3376C25.4881 14.5546 25.6097 14.4311 25.6097 14.2789V13.2863C25.6097 13.1341 25.4881 13.0104 25.3376 13.0104H22.6696V11.9683H25.3376Z" fill="white"/>
</svg>
